HIERARCHY
ROOT Hips
{
	OFFSET 0.000000 0.000000 0.000000 
	CHANNELS 6 Xposition Yposition Zposition Zrotation Yrotation Xrotation
	JOINT LeftUpLeg
	{
		OFFSET 1.363060 -1.794630 0.839290 
		CHANNELS 3 Zrotation Yrotation Xrotation
		JOINT LeftLeg
		{
			OFFSET 2.448110 -6.726130 0.000000 
			CHANNELS 3 Zrotation Yrotation Xrotation
			JOINT LeftFoot
			{
				OFFSET 2.562200 -7.039590 0.000000 
				CHANNELS 3 Zrotation Yrotation Xrotation
				JOINT LeftToeBase
				{
					OFFSET 0.157640 -0.433110 2.322550 
					CHANNELS 3 Zrotation Yrotation Xrotation
					End Site
					{
						OFFSET 0.000000 0.000000 0.000000 
					}
				}
			}
		}
	}
	JOINT RightUpLeg
	{
		OFFSET -1.305520 -1.794630 0.839290 
		CHANNELS 3 Zrotation Yrotation Xrotation
		JOINT RightLeg
		{
			OFFSET -2.542530 -6.985550 0.000000 
			CHANNELS 3 Zrotation Yrotation Xrotation
			JOINT RightFoot
			{
				OFFSET -2.568260 -7.056230 0.000000 
				CHANNELS 3 Zrotation Yrotation Xrotation
				JOINT RightToeBase
				{
					OFFSET -0.164730 -0.452590 2.363150 
					CHANNELS 3 Zrotation Yrotation Xrotation
					End Site
					{
						OFFSET 0.000000 0.000000 0.000000 
					}
				}
			}
		}
	}
	JOINT Spine
	{
		OFFSET 0.028270 2.035590 -0.193380 
		CHANNELS 3 Zrotation Yrotation Xrotation
		JOINT Spine1
		{
			OFFSET 0.056720 2.048850 -0.042750 
			CHANNELS 3 Zrotation Yrotation Xrotation
			JOINT Neck1
			{
				OFFSET -0.054170 1.746240 0.172020 
				CHANNELS 3 Zrotation Yrotation Xrotation
				JOINT Head
				{
					OFFSET 0.104070 1.761360 -0.123970 
					CHANNELS 3 Zrotation Yrotation Xrotation
					End Site
					{
						OFFSET 0.000000 0.000000 0.000000 
					}
				}
			}
			JOINT LeftArm
			{
				OFFSET 3.362410 1.200890 -0.311210 
				CHANNELS 3 Zrotation Yrotation Xrotation
				JOINT LeftForeArm
				{
					OFFSET 4.983000 -0.000000 -0.000000 
					CHANNELS 3 Zrotation Yrotation Xrotation
					JOINT LeftHand
					{
						OFFSET 3.483560 -0.000000 -0.000000 
						CHANNELS 3 Zrotation Yrotation Xrotation
						JOINT LeftHandIndex1
						{
							OFFSET 0.715260 -0.000000 -0.000000 
							CHANNELS 3 Zrotation Yrotation Xrotation
							End Site
							{
								OFFSET 0.000000 0.000000 0.000000 
							}
						}
					}
				}
			}
			JOINT RightArm
			{
				OFFSET -3.136600 1.374050 -0.404650 
				CHANNELS 3 Zrotation Yrotation Xrotation
				JOINT RightForeArm
				{
					OFFSET -5.241900 -0.000000 -0.000000 
					CHANNELS 3 Zrotation Yrotation Xrotation
					JOINT RightHand
					{
						OFFSET -3.444170 -0.000000 -0.000000 
						CHANNELS 3 Zrotation Yrotation Xrotation
						JOINT RightHandIndex1
						{
							OFFSET -0.622530 -0.000000 -0.000000 
							CHANNELS 3 Zrotation Yrotation Xrotation
							End Site
							{
								OFFSET 0.000000 0.000000 0.000000 
							}
						}
					}
				}
			}
		}
	}
}
MOTION
Frames: 15
Frame Time: 0.041667
-2.017094 17.890972 0.102398 0.671351 -0.207923 7.131148 -14.291986 -5.641581 -10.992647 0.134706 7.464845 23.732673 -1.639765 8.052795 -6.747016 1.278000 -7.164400 -20.203300 13.205150 8.971676 -13.242567 -1.629074 -9.779745 29.861353 -0.609325 -0.988489 -12.029422 -0.142200 -2.430400 6.696800 0.974982 0.390442 -2.525987 3.217782 0.714457 -0.888377 4.720875 -1.793806 16.296488 3.457900 -1.416500 12.147900 -79.979850 0.730172 7.549831 9.781198 -19.652470 -2.015080 -0.242649 -1.859468 9.686379 -7.125000 0.000000 0.000000 76.006599 -1.758967 7.580942 -14.747230 21.388482 -3.575783 0.817530 -0.459677 19.163787 7.125000 0.000000 0.000000 
-2.016183 17.890871 0.101689 0.672486 -0.202751 7.138219 -14.292055 -5.632301 -11.018917 0.137882 7.471249 23.752542 -1.611677 7.954547 -6.731670 1.263900 -7.126200 -20.089700 13.199323 8.938865 -13.265938 -1.634064 -9.787150 29.884052 -0.613361 -0.974438 -12.033561 -0.135000 -2.368300 6.524700 0.974073 0.393358 -2.519773 3.212062 0.715749 -0.881356 4.695677 -1.800948 16.265499 3.444900 -1.421100 12.132900 -79.943612 0.747922 7.731481 9.825460 -19.726260 -2.025884 -0.242360 -1.881001 9.513696 -7.125000 0.000000 0.000000 75.989070 -1.796760 7.678204 -14.782637 21.440309 -3.593120 0.806200 -0.470385 19.079210 7.125000 0.000000 0.000000 
-2.015678 17.889859 0.100475 0.673872 -0.203271 7.126068 -14.302742 -5.622908 -11.030349 0.144386 7.483325 23.787739 -1.610672 7.949290 -6.714540 1.280400 -7.171000 -20.222900 13.191407 8.951351 -13.254485 -1.633397 -9.785846 29.880449 -0.613011 -0.975063 -12.030731 -0.139300 -2.405200 6.627000 0.978935 0.400455 -2.493824 3.219523 0.716931 -0.848886 4.734751 -1.813088 16.218976 3.466400 -1.424100 12.122600 -79.962941 0.718002 7.744661 9.874195 -19.800538 -2.038204 -0.244715 -1.898561 9.543696 -7.125000 0.000000 0.000000 75.976201 -1.733466 7.609732 -14.785035 21.443712 -3.595121 0.792631 -0.479580 19.184669 7.125000 0.000000 0.000000 
-2.015880 17.889656 0.100374 0.627389 -0.227321 7.100718 -14.255555 -5.577760 -11.042862 0.152542 7.498170 23.830431 -1.600840 7.920176 -6.743758 1.275700 -7.158200 -20.185000 13.244208 8.983916 -13.228631 -1.632001 -9.782088 29.875983 -0.599953 -1.019130 -12.014451 -0.139500 -2.407300 6.632600 0.981755 0.438324 -2.483874 3.197135 0.735553 -0.864455 4.766835 -1.847566 16.214768 3.475600 -1.435300 12.128500 -79.943839 0.720852 7.809791 9.900991 -19.843440 -2.046107 -0.249132 -1.904802 9.565602 -7.125000 0.000000 0.000000 75.999172 -1.662792 7.494388 -14.747796 21.390854 -3.577877 0.791010 -0.477953 19.245115 7.125000 0.000000 0.000000 
-2.015374 17.889555 0.101386 0.553779 -0.211795 7.077641 -14.174189 -5.543269 -11.062380 0.161671 7.515995 23.879004 -1.582103 7.860507 -6.775446 1.278300 -7.165100 -20.205500 13.335332 8.992271 -13.192170 -1.630551 -9.776613 29.870001 -0.594366 -1.046698 -12.041043 -0.138000 -2.394600 6.597400 1.001540 0.453312 -2.474695 3.189526 0.742623 -0.868580 4.795212 -1.860298 16.214203 3.485700 -1.437600 12.130500 -79.929107 0.690139 7.881974 9.889625 -19.824977 -2.040835 -0.255772 -1.903054 9.558963 -7.125000 0.000000 0.000000 75.988870 -1.626292 7.452338 -14.719834 21.353582 -3.565553 0.792528 -0.477582 19.255039 7.125000 0.000000 0.000000 
-2.014059 17.887734 0.101993 0.531175 -0.195121 7.067969 -14.151949 -5.522306 -11.089767 0.170435 7.533118 23.928232 -1.564391 7.800809 -6.779621 1.278900 -7.166800 -20.210400 13.365276 8.966976 -13.168561 -1.629909 -9.773595 29.864990 -0.602964 -1.021829 -12.071035 -0.136900 -2.384400 6.569400 1.003954 0.456121 -2.461811 3.172680 0.743409 -0.846026 4.774686 -1.851126 16.210155 3.474300 -1.433200 12.127600 -79.903665 0.654371 7.857541 9.881711 -19.811805 -2.039191 -0.251502 -1.901015 9.648205 -7.125000 0.000000 0.000000 76.001802 -1.620940 7.429638 -14.738094 21.377140 -3.573583 0.787022 -0.478518 19.299102 7.125000 0.000000 0.000000 
-2.013047 17.886317 0.100880 0.520343 -0.186213 7.044927 -14.140734 -5.505988 -11.095642 0.175729 7.542788 23.957889 -1.545981 7.740532 -6.798354 1.282900 -7.177600 -20.242600 13.378384 8.997190 -13.133179 -1.633355 -9.777446 29.881486 -0.610440 -1.014282 -12.141233 -0.140800 -2.418100 6.662500 1.005676 0.461013 -2.459866 3.165985 0.747163 -0.869636 4.730097 -1.849013 16.181579 3.449400 -1.433500 12.108100 -79.893128 0.669945 7.822393 9.899414 -19.839862 -2.049613 -0.233555 -1.900377 9.798998 -7.125000 0.000000 0.000000 76.024523 -1.642562 7.406184 -14.757996 21.402454 -3.581989 0.781735 -0.478089 19.304493 7.125000 0.000000 0.000000 
-2.011731 17.885710 0.100374 0.517030 -0.200549 7.049715 -14.141785 -5.480596 -11.112185 0.177183 7.545034 23.966123 -1.534836 7.704267 -6.811010 1.304800 -7.236300 -20.417500 13.379147 8.979533 -13.171031 -1.640085 -9.788142 29.914817 -0.605805 -1.031505 -12.137855 -0.130000 -2.324100 6.402400 1.017294 0.464900 -2.474511 3.186076 0.750843 -0.911974 4.728652 -1.825893 16.150723 3.452800 -1.424000 12.082800 -79.892753 0.693411 7.777068 9.894213 -19.833062 -2.051709 -0.228512 -1.892115 9.829902 -7.125000 0.000000 0.000000 76.002665 -1.684087 7.450394 -14.756103 21.402334 -3.582017 0.785954 -0.480533 19.189463 7.125000 0.000000 0.000000 
-2.010011 17.883788 0.101689 0.590367 -0.216904 7.074420 -14.229411 -5.476373 -11.115432 0.174418 7.538846 23.955118 -1.529990 7.691723 -6.834369 1.292000 -7.202000 -20.315200 13.281015 8.937303 -13.250366 -1.649661 -9.805780 29.957522 -0.614711 -0.979142 -12.073389 -0.133400 -2.354000 6.485000 1.006618 0.465428 -2.477700 3.209073 0.750779 -0.902283 4.763802 -1.782204 16.127502 3.474300 -1.400900 12.064500 -79.877610 0.702654 7.797980 9.886112 -19.823059 -2.050730 -0.229980 -1.886974 9.691873 -7.125000 0.000000 0.000000 75.996220 -1.672267 7.512614 -14.752784 21.397766 -3.580225 0.788381 -0.479655 19.106659 7.125000 0.000000 0.000000 
-2.009606 17.883585 0.104320 0.641656 -0.232685 7.052517 -14.291979 -5.442207 -11.087786 0.171644 7.530559 23.938240 -1.521571 7.662286 -6.827897 1.276600 -7.160700 -20.192500 13.223637 8.925099 -13.258592 -1.660423 -9.823462 30.007841 -0.614028 -0.975996 -12.050892 -0.129900 -2.322900 6.399000 1.004372 0.443838 -2.462246 3.235449 0.738617 -0.877202 4.782315 -1.721520 16.104146 3.489600 -1.371100 12.047900 -79.875529 0.709078 7.781392 9.903796 -19.852924 -2.059474 -0.226540 -1.885646 9.603135 -7.125000 0.000000 0.000000 75.967924 -1.650355 7.676559 -14.756090 21.401738 -3.580769 0.795522 -0.475027 19.056232 7.125000 0.000000 0.000000 
-2.010214 17.884091 0.105838 0.644308 -0.219365 7.057373 -14.288279 -5.453661 -11.074612 0.166993 7.520822 23.908791 -1.534485 7.700037 -6.786750 1.277100 -7.162100 -20.196500 13.225093 8.955820 -13.265713 -1.671275 -9.840221 30.061246 -0.617857 -0.972729 -12.088419 -0.125300 -2.282000 6.285700 1.020461 0.428531 -2.460412 3.276656 0.732001 -0.870239 4.696835 -1.696407 16.136270 3.450100 -1.366900 12.060800 -79.892421 0.715561 7.804854 9.906585 -19.858811 -2.061035 -0.232187 -1.881980 9.575872 -7.125000 0.000000 0.000000 75.941722 -1.650690 7.720167 -14.755711 21.402305 -3.581281 0.798022 -0.478889 19.120812 7.125000 0.000000 0.000000 
-2.009101 17.883687 0.106445 0.662246 -0.183509 7.064354 -14.303433 -5.446804 -11.080234 0.163821 7.514451 23.891735 -1.522531 7.655925 -6.765210 1.269200 -7.140600 -20.132600 13.211149 8.912823 -13.301060 -1.678336 -9.852885 30.097753 -0.605478 -1.024733 -12.095179 -0.115100 -2.186900 6.022500 1.021721 0.420414 -2.448939 3.280970 0.727143 -0.842841 4.638947 -1.703790 16.137281 3.420800 -1.374500 12.063700 -79.905962 0.656015 7.695062 9.889358 -19.828304 -2.056741 -0.237687 -1.871204 9.629753 -7.125000 0.000000 0.000000 75.933980 -1.613215 7.713295 -14.752257 21.398677 -3.580470 0.789104 -0.485803 19.165693 7.125000 0.000000 0.000000 
-2.008696 17.882978 0.108368 0.701419 -0.153548 7.073650 -14.339660 -5.426993 -11.080552 0.158818 7.503887 23.863091 -1.523625 7.657321 -6.748628 1.283700 -7.179800 -20.249200 13.176495 8.903972 -13.326037 -1.686528 -9.866638 30.136120 -0.620168 -0.987419 -12.155272 -0.121900 -2.250400 6.198300 1.025677 0.405765 -2.452637 3.314722 0.720731 -0.842401 4.569880 -1.707238 16.188291 3.387800 -1.383400 12.087800 -79.907655 0.636650 7.604539 9.852454 -19.769741 -2.044342 -0.243456 -1.861960 9.639735 -7.125000 0.000000 0.000000 75.890156 -1.596329 7.749419 -14.733630 21.377614 -3.572575 0.779921 -0.486838 19.157473 7.125000 0.000000 0.000000 
-2.006773 17.882776 0.111302 0.765118 -0.139373 7.066557 -14.413264 -5.373407 -11.068552 0.154308 7.491522 23.833038 -1.519466 7.635014 -6.690592 1.300400 -7.224400 -20.382000 13.117462 8.899113 -13.330418 -1.694725 -9.882063 30.178950 -0.611489 -1.048193 -12.230689 -0.113100 -2.168500 5.971500 1.035074 0.381247 -2.461904 3.371147 0.710260 -0.859008 4.506708 -1.687634 16.240296 3.366000 -1.384900 12.106400 -79.953234 0.702801 7.501607 9.841612 -19.754418 -2.040464 -0.245034 -1.860143 9.698219 -7.125000 0.000000 0.000000 75.835996 -1.603569 7.770398 -14.705299 21.344562 -3.560739 0.775369 -0.487938 19.251598 7.125000 0.000000 0.000000 
-2.002928 17.883181 0.115046 0.896117 -0.114584 7.111160 -14.569245 -5.390025 -11.074406 0.149693 7.482305 23.816856 -1.504990 7.590745 -6.720836 1.299900 -7.223100 -20.378000 12.965896 8.859143 -13.405662 -1.699832 -9.896928 30.207929 -0.583665 -1.165894 -12.238365 -0.096900 -2.007400 5.526100 1.022957 0.344327 -2.463491 3.413951 0.690891 -0.817748 4.530305 -1.688383 16.215843 3.382100 -1.385700 12.094100 -79.994776 0.770857 7.534191 9.880077 -19.818471 -2.055611 -0.236847 -1.865336 9.643094 -7.125000 0.000000 0.000000 75.820340 -1.608724 7.805536 -14.719008 21.359970 -3.565177 0.787291 -0.475778 19.320008 7.125000 0.000000 0.000000 
